General
Complete name                            : Pink Floyd - P·U·L·S·E (Disc 1).mkv
Format                                   : Matroska
Format version                           : Version 2
File size                                : 977 MiB
Duration                                 : 1h 12mn
Overall bit rate                         : 1 877 Kbps
Encoded date                             : UTC 2011-11-05 04:46:11
Writing application                      : mkvmerge v4.9.1
Writing library                          : libebml v1.2.1 + libmatroska v1.1.1

Video
ID                                       : 1
Format                                   : AVC
Format/Info                              : Advanced Video Codec
Format profile                           : Main@L3.1
Format settings, CABAC                   : Yes
Format settings, ReFrames                : 2 frames
Codec ID                                 : avc1
Codec ID/Info                            : Advanced Video Coding
Duration                                 : 1h 12mn
Bit rate mode                            : Variable
Bit rate                                 : 1 235 Kbps
Maximum bit rate                         : 4 382 Kbps
Width                                    : 720 pixels
Height                                   : 484 pixels
Display aspect ratio                     : 3:2
Original display aspect ratio            : 4:3
Frame rate mode                          : Constant
Frame rate                               : 29.970 fps
Standard                                 : NTSC
Color space                              : YUV
Chroma subsampling                       : 4:2:0
Bit depth                                : 8 bits
Scan type                                : Progressive
Bits/(Pixel*Frame)                       : 0.118
Stream size                              : 643 MiB (100%)
Language                                 : English
Encoded date                             : UTC 2011-11-05 04:11:33
Tagged date                              : UTC 2011-11-05 04:13:18

Audio
Format                                   : AC-3
Format/Info                              : Audio Coding 3
Mode extension                           : CM (complete main)
Duration                                 : 1h 12mn
Bit rate mode                            : Constant
Bit rate                                 : 640 Kbps
Channel(s)                               : 6 channels
Channel positions                        : Front: L C R, Side: L R, LFE
Sampling rate                            : 48.0 KHz
Bit depth                                : 16 bits
Compression mode                         : Lossy
Stream size                              : 333 MiB (100%)

Menu
00:00:00.000                             : 01. Shine On You Crazy Diamond
00:13:21.633                             : 02. Learning To Fly
00:19:03.533                             : 03. High Hopes
00:27:10.600                             : 04. Take It Back
00:33:09.833                             : 05. Coming Back To Life
00:40:00.633                             : 06. Sorrow
00:51:13.867                             : 07. Keep Talking
00:58:46.267                             : 08. Another Brick In The Wall (Part 2)
01:05:40.533                             : 09. One Of These Days

-----------------------------------------
General
Complete name                            : Pink Floyd - P·U·L·S·E (Disc 2).mkv
Format                                   : Matroska
Format version                           : Version 2
File size                                : 958 MiB
Duration                                 : 1h 11mn
Overall bit rate                         : 1 874 Kbps
Encoded date                             : UTC 2011-11-05 02:05:11
Writing application                      : mkvmerge v4.9.1
Writing library                          : libebml v1.2.1 + libmatroska v1.1.1

Video
ID                                       : 1
Format                                   : AVC
Format/Info                              : Advanced Video Codec
Format profile                           : Main@L3.1
Format settings, CABAC                   : Yes
Format settings, ReFrames                : 2 frames
Codec ID                                 : avc1
Codec ID/Info                            : Advanced Video Coding
Duration                                 : 1h 11mn
Bit rate mode                            : Variable
Bit rate                                 : 1 232 Kbps
Maximum bit rate                         : 4 943 Kbps
Width                                    : 720 pixels
Height                                   : 484 pixels
Display aspect ratio                     : 3:2
Original display aspect ratio            : 4:3
Frame rate mode                          : Constant
Frame rate                               : 29.970 fps
Standard                                 : NTSC
Color space                              : YUV
Chroma subsampling                       : 4:2:0
Bit depth                                : 8 bits
Scan type                                : Progressive
Bits/(Pixel*Frame)                       : 0.118
Stream size                              : 630 MiB (100%)
Language                                 : English
Encoded date                             : UTC 2011-11-05 00:55:52
Tagged date                              : UTC 2011-11-05 00:57:20

Audio
Format                                   : AC-3
Format/Info                              : Audio Coding 3
Mode extension                           : CM (complete main)
Duration                                 : 1h 11mn
Bit rate mode                            : Constant
Bit rate                                 : 640 Kbps
Channel(s)                               : 6 channels
Channel positions                        : Front: L C R, Side: L R, LFE
Sampling rate                            : 48.0 KHz
Bit depth                                : 16 bits
Compression mode                         : Lossy
Stream size                              : 327 MiB (100%)

Menu
00:00:00.000                             : 01. Speak To Me
00:02:06.100                             : 02. Breathe In The Air
00:04:47.733                             : 03. On The Run
00:08:31.333                             : 04. Time
00:15:09.567                             : 05. The Great Gig In The Sky
00:20:27.200                             : 06. Money
00:29:09.800                             : 07. Us And Them
00:36:15.767                             : 08. Any Colour You Like
00:39:31.733                             : 09. Brain Damage
00:43:19.333                             : 10. Eclipse
00:46:18.300                             : 11. Wish You Were Here
00:52:25.967                             : 12. Comfortably Numb
01:02:00.567                             : 13. Run Like Hell